<svg xmlns="http://www.w3.org/2000/svg" width="253.791" height="211.401" viewBox="0 0 253.791 211.401"><g transform="translate(-36.209 -85)"><g transform="translate(36.209 104.866)"><g transform="translate(0 0)"><path d="M68.458,311.9l-8.171.166-4.144.067c-1.385.028-2.776.022-4.164.033l-.264,0V311.9l-.032-6.963v-.3h.3l8.24.037c2.747,0,5.493.067,8.24.1l.164,0,0,.16c-.011,1.18-.051,2.355-.077,3.517Zm0,0-.084-3.517c-.027-1.159-.067-2.306-.078-3.447l.162.162c-2.747.03-5.493.094-8.24.1l-8.24.037.3-.3-.032,6.963-.264-.264c1.358.01,2.713,0,4.076.033l4.1.067Z" transform="translate(-42.486 -202.882)" fill="#ebebeb"/><path d="M52.987,326.674l-8.171.166-4.144.067c-1.385.028-2.776.022-4.164.033l-.264,0v-.267l-.032-6.963v-.3h.3l8.24.037c2.747,0,5.493.067,8.24.1l.164,0,0,.16c-.011,1.18-.051,2.355-.078,3.517Zm0,0-.084-3.517c-.027-1.159-.067-2.306-.078-3.447l.162.162c-2.747.03-5.493.094-8.24.1l-8.24.037.3-.3-.032,6.963-.264-.264c1.358.01,2.713,0,4.075.033l4.1.067Z" transform="translate(-36.209 -208.878)" fill="#ebebeb"/><path d="M247.719,165.821l-8.171.166-4.144.067c-1.385.028-2.776.022-4.164.033l-.264,0v-.267l-.031-6.964,0-.3h.3l8.24.037c2.747,0,5.494.067,8.24.1l.163,0v.16c-.011,1.181-.051,2.355-.078,3.517Zm0,0-.084-3.517c-.027-1.159-.067-2.307-.078-3.447l.162.162c-2.747.03-5.493.094-8.24.1l-8.24.037.3-.3-.031,6.964-.265-.265c1.358.011,2.714,0,4.076.033l4.1.067Z" transform="translate(-132.186 -112.153)" fill="#ebebeb"/><path d="M231.991,180.6l-8.171.166-4.144.067c-1.385.028-2.776.022-4.164.032l-.264,0V180.6l-.032-6.964v-.3h.3l8.24.037c2.747,0,5.493.067,8.24.1l.164,0,0,.16c-.011,1.181-.051,2.355-.078,3.517Zm0,0-.084-3.517c-.027-1.159-.067-2.307-.078-3.447l.162.162c-2.747.03-5.493.094-8.24.1l-8.24.037.3-.3-.032,6.964-.264-.265c1.358.011,2.713,0,4.075.033l4.1.067Z" transform="translate(-124.434 -121.039)" fill="#ebebeb"/><path d="M451.833,326.674l-8.172.166-4.144.067c-1.385.028-2.776.022-4.164.033l-.264,0v-.267l-.032-6.963v-.3h.3l8.24.037c2.747,0,5.493.067,8.24.1l.164,0,0,.16c-.011,1.18-.051,2.355-.078,3.517Zm0,0-.084-3.517c-.027-1.159-.067-2.306-.078-3.447l.162.162c-2.747.03-5.493.094-8.24.1l-8.24.037.3-.3-.032,6.963-.264-.264c1.358.01,2.713,0,4.075.033l4.1.067Z" transform="translate(-232.787 -208.878)" fill="#ebebeb"/><path d="M436.363,49.42l-8.171.166-4.144.067c-1.385.028-2.776.022-4.164.033l-.263,0V49.42l-.032-6.964v-.3h.3l8.24.037c2.747,0,5.493.067,8.24.1l.164,0,0,.16c-.011,1.181-.051,2.355-.078,3.517Zm0,0-.084-3.517c-.027-1.159-.067-2.307-.078-3.447l.162.162c-2.747.03-5.493.094-8.24.1l-8.24.037.3-.3-.032,6.964-.265-.265c1.359.011,2.714,0,4.076.033l4.1.067Z" transform="translate(-226.51 -42.158)" fill="#ebebeb"/><path d="M451.833,64.2l-8.172.166-4.144.067c-1.385.028-2.776.022-4.164.033l-.264,0V64.2l-.032-6.964v-.3l.3,0,8.24.037c2.747,0,5.493.067,8.24.1l.164,0,0,.16c-.011,1.181-.051,2.355-.078,3.517Zm0,0-.084-3.517c-.027-1.159-.067-2.307-.078-3.447l.162.162c-2.747.03-5.493.094-8.24.1l-8.24.037.3-.3-.032,6.964-.264-.265c1.358.011,2.713,0,4.075.033l4.1.067Z" transform="translate(-232.787 -48.154)" fill="#ebebeb"/><path d="M52.987,49.42l-8.171.166-4.144.067c-1.385.028-2.776.022-4.164.033l-.264,0V49.42l-.032-6.964v-.3h.3l8.24.037c2.747,0,5.493.067,8.24.1l.164,0,0,.16c-.011,1.181-.051,2.355-.078,3.517Zm0,0L52.9,45.9c-.027-1.159-.067-2.307-.078-3.447l.162.162c-2.747.03-5.493.094-8.24.1l-8.24.037.3-.3-.032,6.964-.264-.265c1.358.011,2.713,0,4.075.033l4.1.067Z" transform="translate(-36.209 -42.158)" fill="#ebebeb"/><path d="M216.264,165.821l-8.171.166-4.144.067c-1.385.028-2.776.022-4.164.033l-.264,0v-.267l-.031-6.964,0-.3h.3l8.24.037c2.747,0,5.494.067,8.24.1l.163,0v.16c-.011,1.181-.051,2.355-.078,3.517Zm0,0-.084-3.517c-.027-1.159-.067-2.307-.078-3.447l.162.162c-2.747.03-5.494.094-8.24.1l-8.24.037.3-.3-.031,6.964-.265-.265c1.358.011,2.714,0,4.076.033l4.1.067Z" transform="translate(-116.682 -112.153)" fill="#ebebeb"/></g></g><g transform="translate(43.021 270.317)"><ellipse cx="120.232" cy="13.042" rx="120.232" ry="13.042" transform="translate(0 0)" fill="#ebebeb"/></g><g transform="translate(36.507 265.876)"><path d="M36.711,404.65l31.687-.144,31.687-.052,63.373-.1,63.373.1,31.687.052,31.687.145-31.687.145-31.687.052-63.373.1-63.373-.1L68.4,404.794Z" transform="translate(-36.711 -404.353)" fill="#263238"/></g><g transform="translate(251.79 212.575)"><g transform="translate(0 0)"><g transform="translate(0 12.246)"><path d="M414.024,346.569c8.519,8.341,9.949,21.244,8.154,32.546-.046.257-.443.187-.443-.054,0-2.573.077-5.122.07-7.665-.046-.116-.086-.225-.132-.342a17.119,17.119,0,0,1-5.534-5.947c-1.423-2.8-1.982-5.954-3.07-8.877-.1-.28.2-.2.393-.053,5.182,3.822,6.834,7.935,8.321,13.431a45.7,45.7,0,0,0-.9-8.558,29.176,29.176,0,0,0-7.082-14.256C413.659,346.647,413.876,346.421,414.024,346.569Z" transform="translate(-404.693 -339.833)" fill="#263238"/><path d="M406.718,342.974c-1.465.05-2.384,2.392-3.526,3.076a1.1,1.1,0,0,1-1.618-.254c-1.131-1.58.421-3.529,1.881-4.618a16.278,16.278,0,0,1-3.037,1.4,1.059,1.059,0,0,1-1.371-.821c-.5-2.154,2.205-3.111,4.059-3.157-.9-.625-3.474-2.323-2.105-3.157,1.386-.839,4.408,1.59,5.394,2.389,1.449,1.175,3.176,2.932,3.242,4.77C409.722,344.745,407.846,343.424,406.718,342.974Z" transform="translate(-398.988 -335.266)" fill="#ffc727"/><path d="M406.718,342.974c-1.465.05-2.384,2.392-3.526,3.076a1.1,1.1,0,0,1-1.618-.254c-1.131-1.58.421-3.529,1.881-4.618a16.278,16.278,0,0,1-3.037,1.4,1.059,1.059,0,0,1-1.371-.821c-.5-2.154,2.205-3.111,4.059-3.157-.9-.625-3.474-2.323-2.105-3.157,1.386-.839,4.408,1.59,5.394,2.389,1.449,1.175,3.176,2.932,3.242,4.77C409.722,344.745,407.846,343.424,406.718,342.974Z" transform="translate(-398.988 -335.266)" fill="#e2a0a0"/><path d="M408.573,344.683c-1.874-.852-5.474.374-5.78-.335-.62-1.444,2.256-2.434,3.809-2.626-1.43-.387-4.17-1-4.085-2.384.1-1.684,4.2-.236,6.278,1.355,2.614,2,2.6,3.939,2.165,4.326C410.367,345.552,408.883,344.824,408.573,344.683Z" transform="translate(-400.419 -336.613)" fill="#6452a1"/></g><g transform="translate(18.95 11.676)"><path d="M440.661,345.183c-8.831,8.01-10.751,20.85-9.386,32.212.037.259.436.2.445-.037.1-2.571.117-5.122.221-7.661.051-.115.094-.222.146-.337a17.125,17.125,0,0,0,5.756-5.732c1.528-2.742,2.207-5.875,3.406-8.754.112-.276-.19-.205-.39-.068-5.324,3.622-7.13,7.669-8.826,13.1a45.719,45.719,0,0,1,1.227-8.518,29.172,29.172,0,0,1,7.618-13.976C441.023,345.274,440.814,345.041,440.661,345.183Z" transform="translate(-430.878 -338.702)" fill="#263238"/><g transform="translate(8.32)"><path d="M447.982,341.82c1.462.105,2.291,2.481,3.407,3.208a1.1,1.1,0,0,0,1.626-.193c1.191-1.536-.286-3.542-1.7-4.687a16.251,16.251,0,0,0,2.981,1.512,1.059,1.059,0,0,0,1.4-.768c.578-2.134-2.085-3.193-3.936-3.309.922-.59,3.56-2.189,2.224-3.075-1.354-.891-4.466,1.421-5.481,2.182-1.492,1.12-3.286,2.81-3.421,4.644C444.913,343.475,446.837,342.227,447.982,341.82Z" transform="translate(-444.955 -334.307)" fill="#ffc727"/><path d="M447.982,341.82c1.462.105,2.291,2.481,3.407,3.208a1.1,1.1,0,0,0,1.626-.193c1.191-1.536-.286-3.542-1.7-4.687a16.251,16.251,0,0,0,2.981,1.512,1.059,1.059,0,0,0,1.4-.768c.578-2.134-2.085-3.193-3.936-3.309.922-.59,3.56-2.189,2.224-3.075-1.354-.891-4.466,1.421-5.481,2.182-1.492,1.12-3.286,2.81-3.421,4.644C444.913,343.475,446.837,342.227,447.982,341.82Z" transform="translate(-444.955 -334.307)" fill="#e2a0a0"/><path d="M447.467,343.5c1.905-.78,5.456.582,5.789-.115.675-1.418-2.162-2.518-3.706-2.769,1.444-.333,4.206-.845,4.173-2.226-.039-1.687-4.191-.4-6.325,1.115-2.689,1.9-2.745,3.837-2.328,4.241C445.642,344.3,447.152,343.626,447.467,343.5Z" transform="translate(-444.878 -335.639)" fill="#6452a1"/></g></g><g transform="translate(5.326)"><path d="M427.408,360.342a86.9,86.9,0,0,1-2.742,12.666.315.315,0,0,1-.617-.125c.58-3.9,1.638-7.734,2.218-11.637a58.568,58.568,0,0,0,.678-11.947c-.372-6.577-2.158-13.574-6.449-18.72-.094-.122.106-.295.2-.181,8.593,10.019,7.225,22.3,7.218,23.4,1.216-4.148,2.47-8.9,7.072-13.125.2-.182.353-.1.32.213-.823,7.693-2.962,11.71-7.422,15.822C427.759,357.931,427.6,359.144,427.408,360.342Z" transform="translate(-413.031 -321.029)" fill="#263238"/><path d="M415.338,325.36c-1.546-.686-3.678,1.282-5.207,1.416a1.267,1.267,0,0,1-1.55-1.078c-.379-2.209,2.213-3.449,4.277-3.845-1.3-.08-2.578.267-3.854-.078a1.222,1.222,0,0,1-1.01-1.542c.569-2.485,3.854-2.118,5.8-1.232-.618-1.1-2.435-4.159-.6-4.337,1.861-.172,3.774,3.869,4.394,5.194.912,1.949,1.82,4.642.962,6.582C417.563,328.709,416.281,326.394,415.338,325.36Z" transform="translate(-407.951 -314.658)" fill="#ffc727"/><path d="M415.338,325.36c-1.546-.686-3.678,1.282-5.207,1.416a1.267,1.267,0,0,1-1.55-1.078c-.379-2.209,2.213-3.449,4.277-3.845-1.3-.08-2.578.267-3.854-.078a1.222,1.222,0,0,1-1.01-1.542c.569-2.485,3.854-2.118,5.8-1.232-.618-1.1-2.435-4.159-.6-4.337,1.861-.172,3.774,3.869,4.394,5.194.912,1.949,1.82,4.642.962,6.582C417.563,328.709,416.281,326.394,415.338,325.36Z" transform="translate(-407.951 -314.658)" fill="#e2a0a0"/><path d="M416.836,327.489c-1.515-1.827-5.868-2.367-5.828-3.257.083-1.81,3.566-1.389,5.273-.806-1.289-1.122-3.821-3.142-3.04-4.53.955-1.7,4.479,1.871,5.831,4.566,1.7,3.4.712,5.394.069,5.578C418.259,329.292,417.086,327.791,416.836,327.489Z" transform="translate(-409.191 -316.199)" fill="#6452a1"/></g><path d="M428.5,384.687l3.789,28.955H409.23c.475-2.565,4.766-28.988,4.766-28.988Z" transform="translate(-403.144 -343.059)" fill="#04d9f1"/></g></g><g transform="translate(38.154 122.131)"><g transform="translate(0 0)"><g transform="translate(31.156 12.126)"><path d="M163.139,248.565a.631.631,0,0,1-.573.6c-.726-.023-1.6-.063-2.575-.1-1.658-6.208-3.626-11.209-3.175-9.29a30.851,30.851,0,0,1,.646,9.177c-1.134-.055-3.761-.208-5.076-.285-.874-10.714-2.6-18.773-2.7-16.353-.387,9.762-1.291,12.818-2.317,16.076-12.247-.722-28.291-1.845-39.873-2.9-.72-5.948-1.222-12.356-1.471-11.938-1.925,3.116-2.858,7.829-3.281,11.492-3.685-.364-6.623-.722-8.4-1.03,0,0-.343-4.973-.3-6.593a33.756,33.756,0,0,1,2.587-12.1c1.656-3.941,4.153-7.312,6.55-10.784a.368.368,0,0,1,.058-.075c0-.012.01-.015.019-.029a34.717,34.717,0,0,0,3.879-7.25.2.2,0,0,0,.026-.055,33.6,33.6,0,0,0,1.568-5.718c1.3-7.114,5.992-12.891,12.933-14.074,12.632-8.255,26.218-4.259,29.095,5.342.276.935.528,2,.758,3.158l.007.036c.865,4.281,1.462,9.783,2.1,14.053a.017.017,0,0,0,0,.024c-.01.014-.007.026.008.048l0,.012a39.493,39.493,0,0,0,1,4.961C157.068,222.789,163.968,227.813,163.139,248.565Z" transform="translate(-92.777 -182.864)" fill="#263238"/><path d="M117.657,193.173c-4.668,1.839-7.736,4.922-8.977,10.084-.723,3.009-1.241,5.965-2.717,8.721a31.757,31.757,0,0,1-5.922,7.309c-3.536,3.539-6.125,7.162-7.155,12.248-1.045,5.165-1.447,11.347-.2,16.4a.023.023,0,1,0,.045-.01c-.9-5.084-.218-11.921,1.209-17,1.567-5.577,5.161-8.812,8.908-12.782a23.826,23.826,0,0,0,6.063-11.081c.6-2.552.85-5.248,2.149-7.576,1.55-2.778,4.225-4.368,6.857-5.752A.31.31,0,0,0,117.657,193.173Z" transform="translate(-91.912 -187.037)" fill="#263238"/><path d="M200.37,232.591c-2.69-4.393-5.573-8.2-6.867-13.438-1.179-4.772-1.617-9.73-2.826-14.5a.059.059,0,1,0-.116.023c1.749,8.428,1.384,16.707,5.923,24.117,2.467,4.026,4.961,7.779,6.374,12.445a40.042,40.042,0,0,1,1.4,15.055c-.014.181.218.195.252.024A33.137,33.137,0,0,0,200.37,232.591Z" transform="translate(-131.938 -191.686)" fill="#263238"/></g><g transform="translate(59.432 39.667)"><g transform="translate(1.282)"><g transform="translate(54.812)"><path d="M250.713,230.446l-16.515,31.1a1.221,1.221,0,0,0,.657,2.032l17.108,4.211a2.851,2.851,0,0,0,2.807-1.18l16.515-31.1a1.22,1.22,0,0,0-.655-2.032l-17.108-4.211A2.851,2.851,0,0,0,250.713,230.446Z" transform="translate(-233.891 -229.211)" fill="#37474f"/><path d="M254.138,231.258l-16.515,31.1a1.22,1.22,0,0,0,.657,2.032l17.108,4.211a2.853,2.853,0,0,0,2.808-1.179l16.515-31.1a1.22,1.22,0,0,0-.655-2.032l-17.108-4.211A2.85,2.85,0,0,0,254.138,231.258Z" transform="translate(-235.281 -229.54)" fill="#455a64"/><path d="M270.881,235.3a1.5,1.5,0,1,1-1.055-1.835A1.5,1.5,0,0,1,270.881,235.3Z" transform="translate(-247.706 -230.917)" fill="#263238"/></g><path d="M143.391,292.119c7.127,22.349,25.742,52.6,34.908,53.924,4.362.63,12.028,2.7,18.419-1.572,13.948-9.316,27.853-27.944,32.167-38.772,1.618-4.06-19.536-17.974-23.057-14.9-8.243,7.2-18.68,22.066-19.937,21.8-4.654-.973-21.029-18.688-32.446-31.149C139.585,266.325,140.551,283.212,143.391,292.119Z" transform="translate(-141.653 -247.949)" fill="#ad6359"/><g transform="translate(52.435 7.232)"><path d="M289.017,275.906c.017-9.012-1.363-11.329,2.691-18.928,2.66-4.986.617-8.825-4.244-5.52-7.95,5.4-10.414,17.027-10.108,21.3Z" transform="translate(-249.14 -244.969)" fill="#ad6359"/><g transform="translate(7.168)"><path d="M266.736,297.112s6.793-10.829,7.761-20.432c.67-6.64.515-21.249-15.54-33.041-3.808-2.8-11.218-4.082-6.657,2.745,3.239,4.849,6.759,6.946,8.129,10.11,0,0-9.619-.516-12.272,3.409a87.348,87.348,0,0,0-6.2,10.749,18.35,18.35,0,0,0,1.908,1.341s-2.369,3.752-.818,10.33Z" transform="translate(-241.954 -241.381)" fill="#ad6359"/></g><path d="M269.229,276.407c-2.025-2.852-6.416-8.827-11.708-12.464-5.879-4.04-18.292-10.238-21.23-5.868-2.154,3.2,2.378,5.988,2.378,5.988s-5.671-1.48-6.984,1.84c-1.2,3.025,2.438,4.968,2.438,4.968s-3.595-.307-4.185,2.83c-.711,3.772,6.939,3.8,9.52,8.239C240.038,282.937,269.229,276.407,269.229,276.407Z" transform="translate(-229.891 -247.547)" fill="#ad6359"/><g transform="translate(8.743 16.447)"><path d="M260.257,275.93a28.417,28.417,0,0,0-15.487-6.871c-.146-.011-.232.093-.1.131a70.046,70.046,0,0,1,15.55,6.795C260.252,276.006,260.283,275.957,260.257,275.93Z" transform="translate(-244.604 -269.059)" fill="#263238"/></g><g transform="translate(4.116 23.2)"><path d="M252.847,286.357c-2.233-1.838-9.328-5.671-15.869-5.935-.146-.006-.226.1-.093.137a75.048,75.048,0,0,1,15.928,5.855C252.847,286.433,252.875,286.38,252.847,286.357Z" transform="translate(-236.817 -280.422)" fill="#263238"/></g></g></g><g transform="translate(0 25.987)"><path d="M152.532,319.686,170.7,296.935s-14.456-15.946-23.7-22.555c-5.179-3.7-8.123.266-7.391,5.971C142.169,300.32,152.532,319.686,152.532,319.686Z" transform="translate(-139.495 -272.942)" fill="#ffc727"/><path d="M152.532,319.686,170.7,296.935s-14.456-15.946-23.7-22.555c-5.179-3.7-8.123.266-7.391,5.971C142.169,300.32,152.532,319.686,152.532,319.686Z" transform="translate(-139.495 -272.942)" fill="#6452a1"/><path d="M164.944,294.848a1.6,1.6,0,1,0,0,3.191,1.6,1.6,0,0,0,0-3.191Zm0,2.918a1.319,1.319,0,1,1,1.313-1.313A1.316,1.316,0,0,1,164.944,297.766Zm-14.684,1.985a1.59,1.59,0,1,0,1.593,1.593A1.591,1.591,0,0,0,150.26,299.751Zm0,2.906a1.316,1.316,0,1,1,1.319-1.313A1.314,1.314,0,0,1,150.26,302.656Zm1.159-15.641a1.6,1.6,0,1,0,1.593,1.587A1.6,1.6,0,0,0,151.419,287.016Zm0,2.918a1.322,1.322,0,1,1,1.313-1.331A1.324,1.324,0,0,1,151.419,289.934ZM139.6,280.39c-.012.089-.018.178-.03.273a1.321,1.321,0,0,1,.042,2.508c.006.065.018.137.024.2.006.024.006.048.012.071a1.591,1.591,0,0,0-.048-3.054Zm21.839,31.2a1.595,1.595,0,1,0-1.593,1.705,1.623,1.623,0,0,0,.244-.018l.3-.374a1.29,1.29,0,0,1-.547.119,1.322,1.322,0,1,1,1.325-1.325,1.366,1.366,0,0,1-.03.267Z" transform="translate(-139.525 -275.964)" fill="#fff"/><path d="M168.615,299.557l-16.08,20.163s-10.365-19.368-12.93-39.334c-.5-3.921.734-7.016,3.235-7.367Z" transform="translate(-139.494 -272.973)" opacity="0.1"/><g transform="translate(11.291 21.915)"><path d="M174.188,309.833c-3.084,3.268-11.193,12.377-15.69,18.984-.027.04.112.16.144.125,4.57-4.932,12.963-15.407,15.752-18.93C174.447,309.946,174.246,309.772,174.188,309.833Z" transform="translate(-158.494 -309.82)" fill="#263238"/></g></g></g><g transform="translate(6.385 63.672)"><path d="M50.228,350.332l78.34-.184-4.329-26.936s6.2-7.519,5.023-15.675c-1.285-8.938-17.4-31.587-18.754-32.863-5.452-5.118-11.228-6.038-16.774-4.191h-.013C68.106,286.586,50.228,350.332,50.228,350.332Z" transform="translate(-50.228 -269.606)" fill="#6452a1"/><path d="M129.648,340.334a1.321,1.321,0,0,1-2.335-.838,1.328,1.328,0,0,1,1.325-1.331,1.27,1.27,0,0,1,.7.2l-.053-.339a1.534,1.534,0,0,0-.642-.137,1.6,1.6,0,1,0,1.064,2.787Zm-15.813-8.23a1.6,1.6,0,1,0,1.593,1.6A1.6,1.6,0,0,0,113.835,332.1Zm0,2.918a1.322,1.322,0,1,1,1.319-1.319A1.323,1.323,0,0,1,113.835,335.022Zm12.491-28.839a1.6,1.6,0,1,0,1.6,1.593A1.593,1.593,0,0,0,126.326,306.183Zm0,2.918a1.322,1.322,0,1,1,1.325-1.325A1.32,1.32,0,0,1,126.326,309.1ZM68.9,346.514a1.6,1.6,0,1,0,0,3.191,1.6,1.6,0,0,0,0-3.191Zm0,2.918a1.319,1.319,0,1,1,1.313-1.313A1.316,1.316,0,0,1,68.9,349.432Zm16.235-8.159a1.6,1.6,0,1,0,1.587,1.6A1.6,1.6,0,0,0,85.133,341.273Zm0,2.912a1.319,1.319,0,1,1,1.313-1.313A1.321,1.321,0,0,1,85.133,344.185ZM72.862,300.941a1.389,1.389,0,0,0-.226.018c-.059.107-.113.208-.166.315a1.423,1.423,0,0,1,.392-.059,1.316,1.316,0,1,1-1.248,1.717c-.059.113-.113.22-.166.327a1.591,1.591,0,1,0,1.414-2.318Zm4.487,12.206a1.59,1.59,0,1,0,1.587,1.587A1.591,1.591,0,0,0,77.349,313.147Zm0,2.906a1.316,1.316,0,1,1,1.313-1.319A1.324,1.324,0,0,1,77.349,316.053Zm13.115-36.071a1.6,1.6,0,0,0,0,3.191,1.6,1.6,0,1,0,0-3.191Zm0,2.918a1.322,1.322,0,1,1,1.331-1.325A1.324,1.324,0,0,1,90.464,282.9Zm1.6,24.738a1.6,1.6,0,1,0,1.6,1.593A1.593,1.593,0,0,0,92.062,307.639Zm0,2.918a1.319,1.319,0,1,1,1.325-1.325A1.321,1.321,0,0,1,92.062,310.556Zm13.6-34.145a1.593,1.593,0,1,0,1.587,1.6A1.6,1.6,0,0,0,105.664,276.411Zm0,2.912a1.319,1.319,0,1,1,1.313-1.313A1.319,1.319,0,0,1,105.664,279.323ZM117.9,283.1a1.6,1.6,0,1,0,1.593,1.587A1.6,1.6,0,0,0,117.9,283.1Zm0,2.918a1.322,1.322,0,1,1,1.313-1.331A1.324,1.324,0,0,1,117.9,286.014Zm-5.378,58.908a1.6,1.6,0,1,0,1.593,1.593A1.593,1.593,0,0,0,112.522,344.922Zm0,2.918a1.322,1.322,0,1,1,1.313-1.325A1.32,1.32,0,0,1,112.522,347.839ZM97.951,334.528a1.59,1.59,0,1,0,1.587,1.587A1.591,1.591,0,0,0,97.951,334.528Zm0,2.906a1.316,1.316,0,1,1,1.313-1.319A1.324,1.324,0,0,1,97.951,337.434Zm17.2-22.082a1.6,1.6,0,1,0,1.587,1.587A1.591,1.591,0,0,0,115.155,315.352Zm0,2.912a1.319,1.319,0,1,1,1.313-1.325A1.321,1.321,0,0,1,115.155,318.264Zm1.587-22.433a1.59,1.59,0,1,0,1.593,1.593A1.591,1.591,0,0,0,116.741,295.831Zm0,2.906a1.316,1.316,0,1,1,1.319-1.313A1.314,1.314,0,0,1,116.741,298.737Zm11.041,23.039a1.59,1.59,0,0,0-.63,3.048l-.053-.339a1.314,1.314,0,0,1,.683-2.436,1.131,1.131,0,0,1,.321.042c.048-.077.1-.155.155-.244A1.56,1.56,0,0,0,127.782,321.776ZM106.99,304.727a1.6,1.6,0,1,0,1.593,1.6A1.6,1.6,0,0,0,106.99,304.727Zm0,2.912a1.319,1.319,0,1,1,1.313-1.313A1.316,1.316,0,0,1,106.99,307.639ZM66.064,321.776a1.59,1.59,0,1,0,1.593,1.587A1.591,1.591,0,0,0,66.064,321.776Zm0,2.906a1.316,1.316,0,1,1,1.313-1.319A1.319,1.319,0,0,1,66.064,324.682Zm31.887,24.483a1.6,1.6,0,0,0-1.593,1.521h.279a1.321,1.321,0,0,1,1.313-1.248,1.307,1.307,0,0,1,1.307,1.242h.279A1.592,1.592,0,0,0,97.951,349.165ZM85.644,324.254a1.59,1.59,0,1,0,1.593,1.587A1.59,1.59,0,0,0,85.644,324.254Zm0,2.906a1.316,1.316,0,1,1,1.319-1.319A1.315,1.315,0,0,1,85.644,327.16Zm.79-32.137a1.59,1.59,0,1,0,1.6,1.593A1.591,1.591,0,0,0,86.435,295.023Zm0,2.906a1.316,1.316,0,0,1,0-2.633,1.316,1.316,0,1,1,0,2.633ZM58.166,335.556a1.638,1.638,0,0,0-.3.03c-.036.107-.071.208-.107.309a1.346,1.346,0,0,1,.41-.065,1.322,1.322,0,1,1,0,2.644,1.3,1.3,0,0,1-1.1-.6c-.036.107-.071.208-.107.309a1.579,1.579,0,0,0,1.206.565,1.6,1.6,0,1,0,0-3.191ZM75.5,332.918a1.6,1.6,0,1,0,1.6,1.587A1.591,1.591,0,0,0,75.5,332.918Zm0,2.912a1.319,1.319,0,1,1,1.325-1.325A1.321,1.321,0,0,1,75.5,335.83Zm25.362-15.373a1.593,1.593,0,1,0,1.587,1.593A1.6,1.6,0,0,0,100.863,320.457Zm0,2.906a1.313,1.313,0,1,1,1.313-1.313A1.321,1.321,0,0,1,100.863,323.362Zm-4.13-52.508a1.279,1.279,0,0,1-.957.523H95.77c-.125.083-.244.166-.368.256a1.377,1.377,0,0,0,.273.024,1.6,1.6,0,0,0,1.45-.927C96.994,270.772,96.864,270.807,96.733,270.855Zm4.92,17.709a1.6,1.6,0,1,0,1.6,1.587A1.59,1.59,0,0,0,101.653,288.563Zm0,2.918a1.322,1.322,0,1,1,1.331-1.331A1.325,1.325,0,0,1,101.653,291.481Z" transform="translate(-52.96 -270.062)" fill="#fff"/><path d="M165.842,296.41c1.514,2.52,3.186,4.954,4.771,7.439-.638-1.759-1.266-3.523-1.969-5.258-.014-.035.035-.064.053-.029a36.338,36.338,0,0,1,2.712,6.555,49.937,49.937,0,0,1,3.165,5.849,23.373,23.373,0,0,1,2.124,7.666,19.763,19.763,0,0,1-1.113,7.892,51.089,51.089,0,0,1-3.968,8.353c-.2.357-.7.027-.529-.327,2.223-4.738,4.677-9.723,4.454-15.1-.22-5.306-2.694-10.207-5.119-14.814a73.505,73.505,0,0,0-4.756-8.132C165.593,296.4,165.774,296.3,165.842,296.41Z" transform="translate(-97.061 -280.462)" fill="#263238"/><g transform="translate(42.721 51.545)"><path d="M141.009,356.346a65.077,65.077,0,0,0-9.513,1.564c-1.549.4-3.07.863-4.589,1.363-.757.25-1.517.472-2.283.692a10.261,10.261,0,0,1-2.451.462.057.057,0,0,0,0,.115,17.48,17.48,0,0,0,2.36-.044,16.857,16.857,0,0,0,2.25-.424c1.576-.387,3.132-.848,4.7-1.252,3.17-.815,6.338-1.628,9.56-2.212C141.2,356.584,141.16,356.33,141.009,356.346Z" transform="translate(-122.118 -356.346)" fill="#263238"/><path d="M156.359,360.859a70.562,70.562,0,0,0-7.947-.382c-1.329.016-2.646.109-3.968.237-.631.061-1.261.134-1.89.214-.692.088-1.373.269-2.066.348-.072.008-.072.121,0,.114.655-.053,1.323,0,1.981-.015s1.322-.037,1.982-.053c1.324-.032,2.647-.049,3.971-.094,2.649-.089,5.288-.152,7.939-.15C156.506,361.077,156.5,360.873,156.359,360.859Z" transform="translate(-129.55 -358.02)" fill="#263238"/></g></g><g transform="translate(0 64.911)"><path d="M79.968,278.387C60.015,299.3,35.2,343.008,40.112,351.7c5.465,9.684,34.013-19.914,33.11-21.34-.767-1.211,9.4-27.7,16.622-46.947C97.06,264.187,84.9,273.215,79.968,278.387Z" transform="translate(-39.483 -271.692)" fill="#ad6359"/><g transform="translate(16.036 0)"><path d="M66.469,303.462l28.651,5.159s7.152-20.3,8.57-31.573c.8-6.316-2.917-6.576-7.587-3.219C79.755,285.578,66.469,303.462,66.469,303.462Z" transform="translate(-66.469 -271.692)" fill="#6452a1"/><path d="M82.633,301.372a1.59,1.59,0,1,0,1.593,1.587A1.591,1.591,0,0,0,82.633,301.372Zm0,2.906a1.316,1.316,0,1,1,1.313-1.319A1.319,1.319,0,0,1,82.633,304.277Zm17.6-23.865a1.6,1.6,0,0,0,0,3.191,1.6,1.6,0,1,0,0-3.191Zm0,2.918a1.322,1.322,0,1,1,1.331-1.325A1.324,1.324,0,0,1,100.234,283.33Zm-12.521,3.34a1.614,1.614,0,0,0-.7.16h-.006c-.25.25-.493.493-.737.743v.006a1.539,1.539,0,0,0-.155.683,1.6,1.6,0,1,0,1.593-1.593Zm0,2.918a1.322,1.322,0,1,1,1.325-1.325A1.321,1.321,0,0,1,87.713,289.588Zm12.943,19.01.333.059a.232.232,0,0,1,.059-.048c.024-.065.071-.2.143-.4A1.471,1.471,0,0,0,100.656,308.6Zm-4.451-13.145a1.59,1.59,0,1,0,1.6,1.593A1.591,1.591,0,0,0,96.205,295.453Zm0,2.906a1.316,1.316,0,0,1,0-2.633,1.316,1.316,0,1,1,0,2.633Zm9.056-26.284a1.8,1.8,0,0,0,.184.012,1.578,1.578,0,0,0,.921-.3A5.618,5.618,0,0,0,105.261,272.075Z" transform="translate(-72.381 -271.732)" fill="#fff"/><g transform="translate(4.239 27.464)"><path d="M97.826,322.682c-4.342-1.159-16.211-3.961-24.162-4.774-.048,0-.087.175-.041.187,6.512,1.674,19.718,4.076,24.144,4.854C97.85,322.963,97.907,322.7,97.826,322.682Z" transform="translate(-73.602 -317.908)" fill="#263238"/></g><g transform="translate(25.159 18.465)"><path d="M108.806,320.6c1.181.113,2.358.254,3.531.414l-.246.146c.852-3.122,1.8-6.212,2.817-9.28s2.1-6.114,3.336-9.116c-.749,3.152-1.653,6.259-2.61,9.348s-2,6.153-3.128,9.185l-.07.186-.176-.04Q110.527,321.053,108.806,320.6Z" transform="translate(-108.806 -302.764)" fill="#263238"/><path d="M121.5,310.826a8.834,8.834,0,0,1,.977-1.808,13.031,13.031,0,0,1,1.3-1.609,3.746,3.746,0,0,1-.34.985,6.594,6.594,0,0,1-.518.894A6.764,6.764,0,0,1,121.5,310.826Z" transform="translate(-113.955 -304.649)" fill="#263238"/></g></g><g transform="translate(0.797 55.672)"><g transform="translate(0 0.111)"><path d="M41.3,390.683c5.412,5.856,17.9,5.405,49.466,7.224,4.367.251,14.434-30.092,9.784-30.6-5.857-.641-28.725-1.857-30.408-1.735C55.942,366.6,37.628,386.71,41.3,390.683Z" transform="translate(-40.823 -365.564)" fill="#ad6359"/><g transform="translate(35.489 1.182)"><path d="M118.443,367.552s13.291.187,20.244,2.448c9.309,3.026,16.1,9.472,18.784,12.345,5.6,6,15,24.369,10.176,28-4.362,3.285-13.018-15.98-13.018-15.98s12.066,18.186,6.086,21.176-14.755-19.945-14.755-19.945,11.978,18.964,5.323,21.071c-5.029,1.593-14.147-18.732-14.147-18.732s10.182,16.371,5.081,18.231c-5.637,2.056-15.23-16.177-15.23-16.177-13.763,2.548-21.359-1.87-26.388-5.655C99.382,393.416,118.443,367.552,118.443,367.552Z" transform="translate(-100.544 -367.552)" fill="#ad6359"/><g transform="translate(34.467 20.232)"><path d="M185.151,401.621c1.495,2.085,3.022,4.185,4.326,6.4s2.532,4.469,3.625,6.791a43.764,43.764,0,0,1,3.391,9.44c-1.784-5.7-6.33-13.683-7.635-15.895s-2.492-4.478-3.792-6.685C185.032,401.612,185.115,401.572,185.151,401.621Z" transform="translate(-169.302 -401.599)" fill="#263238"/><path d="M171.587,409.3c1.793,2.745,3.674,5.4,5.346,8.23s3,5.624,4.464,8.542c.113.225-.045.212-.168-.01-1.582-2.857-3.265-5.377-4.879-8.215s-3.122-5.741-4.832-8.509C171.491,409.3,171.559,409.262,171.587,409.3Z" transform="translate(-163.806 -404.717)" fill="#263238"/><path d="M158.7,413.792A73.3,73.3,0,0,1,165.909,427c.1.228-.1.188-.218-.038-2.315-4.436-4.1-7.933-7.136-13.067C158.507,413.814,158.634,413.706,158.7,413.792Z" transform="translate(-158.544 -406.533)" fill="#263238"/></g></g></g><path d="M70.481,370.519c1.9-1.547,7.35-5.3,13.173-5.137a.051.051,0,0,1,.01.1c-4.718.542-11.163,3.766-13.127,5.115A.048.048,0,0,1,70.481,370.519Z" transform="translate(-52.85 -365.377)" fill="#263238"/></g></g><g transform="translate(46.117)"><g transform="translate(7.701 41.707)"><path d="M130.049,255.086c.106,1.377,5.121,10.983,11.241,11.635,1.993.209,3.618-10.621,3.618-10.621l.3-.772,4.229-10.811-11.851-10.465-1.729-1.41s-.962,3.034-2.121,6.824c-.055.175-.11.351-.166.539-.071.213-.141.413-.2.614-.181.563-.362,1.14-.531,1.719-.131.439-.26.866-.38,1.332s-.252.919-.384,1.384A74.715,74.715,0,0,0,130.049,255.086Z" transform="translate(-130.048 -232.643)" fill="#ad6359"/><path d="M136.258,239.467a23.284,23.284,0,0,0,11.473,15.861l4.229-10.811-11.851-10.465-1.729-1.41S137.417,235.677,136.258,239.467Z" transform="translate(-132.568 -232.643)" fill="#263238"/></g><path d="M169.714,212.012c-2.684,20.195-15.082,20.868-19.436,20.284-3.953-.529-17.344-2.835-16.761-23.2s10.821-25.5,19.924-24.767S172.4,191.817,169.714,212.012Z" transform="translate(-123.747 -171.306)" fill="#ad6359"/><g transform="translate(27.053 33.145)"><path d="M187.8,225.585a13.42,13.42,0,0,1-1.29-.56,2.274,2.274,0,0,1-1.208-.824.725.725,0,0,1,.179-.866,1.8,1.8,0,0,1,1.82-.056,2.641,2.641,0,0,1,1.436,1.247A.773.773,0,0,1,187.8,225.585Z" transform="translate(-171.788 -220.193)" fill="#263238"/><path d="M166.094,220.161a13.552,13.552,0,0,0,1.407-.008,2.277,2.277,0,0,0,1.433-.282.725.725,0,0,0,.176-.867,1.8,1.8,0,0,0-1.651-.767,2.642,2.642,0,0,0-1.811.582A.774.774,0,0,0,166.094,220.161Z" transform="translate(-163.738 -218.235)" fill="#263238"/><g transform="translate(0 4.065)"><g transform="translate(1.327 0.606)"><path d="M168.741,228.939c0-.054-.118.045-.127.1-.2,1.372-.667,2.911-1.984,3.141-.04.007-.049.077,0,.078C168.173,232.32,168.768,230.272,168.741,228.939Z" transform="translate(-165.557 -227.243)" fill="#263238"/><path d="M167.07,226.146c-2.165-.563-3.133,3.809-1.127,4.331C167.918,230.99,168.885,226.618,167.07,226.146Z" transform="translate(-164.847 -226.096)" fill="#263238"/></g><path d="M165.254,225.773c-.437.163-.907.517-1.377.461-.545-.065-.846-.612-1.1-1.129-.026-.054-.072-.024-.086.034a1.636,1.636,0,0,0,.8,2.089c.795.3,1.547-.317,1.942-1.112C165.515,225.968,165.43,225.708,165.254,225.773Z" transform="translate(-162.614 -225.076)" fill="#263238"/></g><g transform="translate(12.158 6.485)"><path d="M183.509,231.074c.022-.049.091.088.077.143-.353,1.342-.531,2.939.589,3.668.034.023.015.089-.029.073C182.7,234.406,182.959,232.288,183.509,231.074Z" transform="translate(-183.073 -229.925)" fill="#263238"/><path d="M185.128,229.161c2.212.334,1.383,4.734-.667,4.425C182.444,233.282,183.274,228.882,185.128,229.161Z" transform="translate(-183.161 -229.149)" fill="#263238"/><path d="M187.646,229.925c.3.3.568.787.978.893.475.122.922-.286,1.315-.685.041-.042.068,0,.059.061-.135.846-.579,1.669-1.417,1.678-.764.008-1.169-.815-1.212-1.691C187.36,230.019,187.524,229.805,187.646,229.925Z" transform="translate(-184.815 -229.449)" fill="#263238"/></g><path d="M166.472,248.571c.236.4.44.918.915,1.089a3.658,3.658,0,0,0,1.531.051.049.049,0,0,1,.039.084,1.869,1.869,0,0,1-1.9.269,1.477,1.477,0,0,1-.734-1.468C166.327,248.514,166.438,248.513,166.472,248.571Z" transform="translate(-164.121 -230.528)" fill="#263238"/><g transform="translate(4.014 0.974)"><path d="M174.409,233.221s-.144,2.086-.343,3.043c-.019.09-.259.084-.588.035-.017,0-.027.006-.038-.007a4.645,4.645,0,0,1-4.062-2.621.1.1,0,0,1,.17-.1,7.005,7.005,0,0,0,3.9,2.057c.123-.251.127-3.582.28-3.561a8.517,8.517,0,0,1,2.069.945c.425-4.337.151-8.707.639-13.021a.133.133,0,0,1,.263-.01c.611,4.56.232,9.563-.092,14.053C176.576,234.594,174.757,233.464,174.409,233.221Z" transform="translate(-169.369 -219.873)" fill="#263238"/></g></g><path d="M132.369,179.929c-.689,1.6-9.87,2.7-13.913-3.5-3.981-6.107,1.291-13.624,8.595-10.039C131.666,168.654,133.825,176.544,132.369,179.929Z" transform="translate(-117.089 -163.676)" fill="#263238"/><path d="M119.179,166.816a10.2,10.2,0,0,1,5.944-3.167,6.153,6.153,0,0,1,5.778,2.105,12.437,12.437,0,0,1,2.616,6.092,18.994,18.994,0,0,1,.25,3.438,9.413,9.413,0,0,1-.55,3.429,8.278,8.278,0,0,0,1.184-3.372,15.386,15.386,0,0,0,.122-3.62,11.99,11.99,0,0,0-2.64-6.816,7.152,7.152,0,0,0-3.17-2.133,7.232,7.232,0,0,0-3.774-.116A9.008,9.008,0,0,0,119.179,166.816Z" transform="translate(-117.937 -162.459)" fill="#263238"/><g transform="translate(8.52 12.083)"><path d="M133.68,209.391c3.568,1.464,6.8-6.744,6.8-6.744s16.461,1.579,21.254-10.878a22.459,22.459,0,0,0,7.74,14.819s3.241-14.2-7.162-19.935c0,0-12.467-8.761-23.2.112S131.285,208.409,133.68,209.391Z" transform="translate(-131.427 -182.793)" fill="#263238"/><path d="M170.34,196.328a14.441,14.441,0,0,1-2.281,5.662,15.037,15.037,0,0,1-4.367,4.374,12.7,12.7,0,0,1-1.35.777l-.685.37c-.237.1-.48.2-.722.288-.487.178-.966.378-1.456.537-.5.128-1,.244-1.506.355-.252.053-.5.119-.754.163l-.767.081-1.527.158c-1.022.008-2.043-.036-3.052-.094,1.011-.151,2.017-.2,3.007-.356l1.474-.282.734-.14c.241-.063.476-.147.714-.219.474-.152.947-.3,1.423-.433.463-.173.911-.384,1.366-.573l.68-.288.644-.361a12.379,12.379,0,0,0,1.267-.752,17.251,17.251,0,0,0,4.3-4.014,17.965,17.965,0,0,0,1.621-2.5A17.437,17.437,0,0,0,170.34,196.328Z" transform="translate(-139.723 -188.285)" fill="#263238"/></g><g transform="translate(8.077 22.162)"><path d="M132.33,204.909l-1.649,1.416,4.056,6.854,3.628-3.224Zm2.791,6.243-2.959-4.4.376-.339,3.883,3.618Z" transform="translate(-130.681 -201.845)" fill="#6452a1"/><path d="M135.476,199.753l-.994,1.934,6.34,4.821,2.146-4.354Zm4.938,4.731-4.4-2.956.22-.456,4.96,1.889Z" transform="translate(-132.223 -199.753)" fill="#6452a1"/></g><g transform="translate(4.812 33.436)"><path d="M133.147,225.057s-2.961-7.172-6.122-6.25-1.9,10.645,1.137,12.611a3.445,3.445,0,0,0,4.908-.806Z" transform="translate(-125.186 -218.725)" fill="#ad6359"/><path d="M128.969,223.537c-.052-.017-.079.055-.037.084,2.11,1.455,2.852,3.876,3.212,6.295a1.9,1.9,0,0,0-2.665-1.125c-.07.03-.033.137.035.138a2.12,2.12,0,0,1,2.116,1.228,10.242,10.242,0,0,1,.681,2.084c.062.231.461.2.436-.053,0-.018-.005-.039-.007-.058C133.455,229.187,132.077,224.54,128.969,223.537Z" transform="translate(-126.698 -220.677)" fill="#263238"/></g></g></g></g><g transform="translate(150.031 85)"><g transform="translate(0 0)"><g transform="translate(6.022)"><path d="M268.7,79.487V96.113H264V79.487c0-6.323-4.8-11.464-10.71-11.464s-10.71,5.141-10.71,11.464V96.113h-4.7V79.487c0-9.055,6.912-16.418,15.408-16.418S268.7,70.432,268.7,79.487Z" transform="translate(-237.883 -63.069)" fill="#c7c7c7"/><path d="M237.883,97.973l4.7.189v12.114h-4.7Z" transform="translate(-237.883 -77.231)" fill="#a6a6a6"/><path d="M286.532,99.953V111h-4.7V99.76Z" transform="translate(-255.716 -77.957)" fill="#a6a6a6"/></g><rect width="42.859" height="38.883" transform="translate(0 23.577)" fill="#04d9f1"/><rect width="21.43" height="38.883" transform="translate(21.43 23.577)" opacity="0.1"/><path d="M262.888,133.061l1.794,8.511h-7.614l1.794-8.511a3.807,3.807,0,1,1,4.026,0Z" transform="translate(-239.646 -88.619)" fill="#263238"/></g></g></g></svg>